<svg width="40" height="40" viewBox="0 0 40 40" fill="none" xmlns="http://www.w3.org/2000/svg">
<g clip-path="url(#clip0_118_62)">
<path d="M40 0H0V40H40V0Z" fill="#142257"/>
<path d="M0.573102 18.0557L3.93644 20.0793L19.2376 6.96289C19.675 6.58539 20.325 6.58539 20.7623 6.96289L36.0638 20.0793L39.4265 18.0557C40.1223 17.6431 40.1983 16.6687 39.5813 16.1514L20.7531 0.274658C20.3183 -0.0915527 19.682 -0.0915527 19.2471 0.274658L0.418683 16.1514C-0.198382 16.6687 -0.122089 17.6431 0.573102 18.0557Z" fill="white"/>
<path d="M38.8281 37.2602H35.2344V22.0576L20 9L4.76562 22.0582V37.2602H1.17187C0.524292 37.2602 0 37.7845 0 38.4321C0 39.08 0.524292 39.6039 1.17187 39.6039H38.8281C39.4757 39.6039 40 39.08 40 38.4321C40 37.7845 39.4757 37.2602 38.8281 37.2602ZM22.4844 32.8391C22.0267 33.2969 21.2851 33.2969 20.8273 32.8391C20.3833 32.3951 19.6167 32.3951 19.1727 32.8391C18.7149 33.2969 17.9733 33.2969 17.5156 32.8391C17.0578 32.3813 17.0578 31.6398 17.5156 31.182C18.8452 29.8521 21.1548 29.8521 22.4844 31.182C22.9422 31.6398 22.9422 32.3813 22.4844 32.8391ZM25.7977 29.5261C25.3396 29.9839 24.5984 29.9839 24.1403 29.5261C21.925 27.3081 18.0749 27.3081 15.8597 29.5261C15.4019 29.9836 14.66 29.9836 14.2023 29.5261C13.7448 29.0693 13.7448 28.3265 14.2023 27.869C17.3016 24.7675 22.6984 24.7675 25.7977 27.869C26.2552 28.3265 26.2552 29.0693 25.7977 29.5261ZM29.1153 26.2083C28.6575 26.666 27.9159 26.666 27.4582 26.2083C25.4657 24.217 22.8174 23.1196 20 23.1196C17.1826 23.1196 14.5343 24.217 12.5418 26.2083C12.084 26.666 11.3425 26.666 10.8847 26.2083C10.4269 25.7505 10.4269 25.0089 10.8847 24.5511C13.3188 22.1171 16.5564 20.7758 20 20.7758C23.4436 20.7758 26.6812 22.1171 29.1153 24.5511C29.573 25.0089 29.573 25.7505 29.1153 26.2083Z" fill="white"/>
<path d="M35.0312 2.17188C35.0312 1.52429 34.507 1 33.8594 1H29.1719C28.5243 1 28 1.52429 28 2.17188V3.25647L35.0312 9.15826V2.17188Z" fill="white"/>
</g>
<defs>
<clipPath id="clip0_118_62">
<rect width="40" height="40" fill="white"/>
</clipPath>
</defs>
</svg>
