<svg width="14" height="14" viewBox="0 0 14 14" fill="none" xmlns="http://www.w3.org/2000/svg">
<path d="M14 7C14 10.866 10.866 14 7 14C3.13401 14 0 10.866 0 7C0 3.13401 3.13401 0 7 0C10.866 0 14 3.13401 14 7ZM1.3019 7C1.3019 10.147 3.85303 12.6981 7 12.6981C10.147 12.6981 12.6981 10.147 12.6981 7C12.6981 3.85303 10.147 1.3019 7 1.3019C3.85303 1.3019 1.3019 3.85303 1.3019 7Z" fill="white"/>
<path d="M10.5652 5.18643C10.1645 4.39858 9.51404 3.76566 8.71554 3.38656C7.91704 3.00746 7.01545 2.90353 6.15164 3.091C5.28783 3.27847 4.51044 3.74679 3.94092 4.42278C3.37141 5.09878 3.04184 5.94438 3.00372 6.82748C2.9656 7.71058 3.22106 8.58144 3.7302 9.304C4.23934 10.0266 4.97348 10.5601 5.81793 10.8213C6.66237 11.0826 7.56955 11.0567 8.39775 10.7478C9.22595 10.439 9.92852 9.86445 10.3957 9.11407L9.25823 8.40592C8.94755 8.90494 8.48032 9.28701 7.92955 9.49242C7.37877 9.69783 6.77547 9.71502 6.21389 9.5413C5.65231 9.36759 5.16408 9.01275 4.82549 8.53223C4.4869 8.0517 4.31701 7.47256 4.34236 6.88527C4.36771 6.29798 4.58688 5.73564 4.96563 5.28608C5.34437 4.83652 5.86136 4.52508 6.43582 4.4004C7.01028 4.27573 7.60986 4.34485 8.14088 4.59696C8.67191 4.84907 9.10447 5.26998 9.37099 5.79392L10.5652 5.18643Z" fill="white"/>
</svg>
