<svg width="180" height="36" viewBox="0 0 180 36" fill="none" xmlns="http://www.w3.org/2000/svg">
<path d="M160.044 6.02137C160.659 4.1261 163.341 4.1261 163.956 6.02136L165.579 11.0162C165.855 11.8638 166.645 12.4377 167.536 12.4377H172.788C174.781 12.4377 175.609 14.9878 173.997 16.1591L169.748 19.2461C169.027 19.7699 168.725 20.6985 169.001 21.5461L170.624 26.5409C171.239 28.4362 169.07 30.0122 167.458 28.8409L163.209 25.7539C162.488 25.2301 161.512 25.2301 160.791 25.7539L156.542 28.8409C154.93 30.0122 152.761 28.4362 153.376 26.5409L154.999 21.5461C155.275 20.6985 154.973 19.7699 154.252 19.2461L150.003 16.1591C148.391 14.9878 149.219 12.4377 151.212 12.4377H156.464C157.355 12.4377 158.145 11.8638 158.421 11.0162L160.044 6.02137Z" fill="#E3E6F0"/>
<path d="M16.0435 6.02137C16.6593 4.1261 19.3406 4.1261 19.9564 6.02136L21.5794 11.0162C21.8548 11.8638 22.6446 12.4377 23.5358 12.4377H28.7878C30.7806 12.4377 31.6091 14.9878 29.9969 16.1591L25.748 19.2461C25.027 19.7699 24.7253 20.6985 25.0007 21.5461L26.6237 26.5409C27.2395 28.4362 25.0703 30.0122 23.458 28.8409L19.2091 25.7539C18.4881 25.2301 17.5118 25.2301 16.7908 25.7539L12.5419 28.8409C10.9297 30.0122 8.7605 28.4362 9.37631 26.5409L10.9992 21.5461C11.2746 20.6985 10.973 19.7699 10.2519 19.2461L6.00305 16.1591C4.39084 14.9878 5.21941 12.4377 7.21221 12.4377H12.4641C13.3553 12.4377 14.1452 11.8638 14.4206 11.0162L16.0435 6.02137Z" fill="#FFA928"/>
<path d="M52.0435 6.02137C52.6593 4.1261 55.3406 4.1261 55.9564 6.02136L57.5794 11.0162C57.8548 11.8638 58.6446 12.4377 59.5358 12.4377H64.7878C66.7806 12.4377 67.6091 14.9878 65.9969 16.1591L61.748 19.2461C61.027 19.7699 60.7253 20.6985 61.0007 21.5461L62.6237 26.5409C63.2395 28.4362 61.0703 30.0122 59.458 28.8409L55.2091 25.7539C54.4881 25.2301 53.5118 25.2301 52.7908 25.7539L48.5419 28.8409C46.9297 30.0122 44.7605 28.4362 45.3763 26.5409L46.9992 21.5461C47.2746 20.6985 46.973 19.7699 46.2519 19.2461L42.0031 16.1591C40.3908 14.9878 41.2194 12.4377 43.2122 12.4377H48.4641C49.3553 12.4377 50.1452 11.8638 50.4206 11.0162L52.0435 6.02137Z" fill="#FFA928"/>
<path d="M88.0435 6.02137C88.6593 4.1261 91.3406 4.1261 91.9564 6.02136L93.5794 11.0162C93.8548 11.8638 94.6446 12.4377 95.5358 12.4377H100.788C102.781 12.4377 103.609 14.9878 101.997 16.1591L97.748 19.2461C97.027 19.7699 96.7253 20.6985 97.0007 21.5461L98.6237 26.5409C99.2395 28.4362 97.0703 30.0122 95.458 28.8409L91.2091 25.7539C90.4881 25.2301 89.5118 25.2301 88.7908 25.7539L84.5419 28.8409C82.9297 30.0122 80.7605 28.4362 81.3763 26.5409L82.9992 21.5461C83.2746 20.6985 82.973 19.7699 82.2519 19.2461L78.0031 16.1591C76.3908 14.9878 77.2194 12.4377 79.2122 12.4377H84.4641C85.3553 12.4377 86.1452 11.8638 86.4206 11.0162L88.0435 6.02137Z" fill="#FFA928"/>
<path d="M124.044 6.02137C124.659 4.1261 127.341 4.1261 127.956 6.02136L129.579 11.0162C129.855 11.8638 130.645 12.4377 131.536 12.4377H136.788C138.781 12.4377 139.609 14.9878 137.997 16.1591L133.748 19.2461C133.027 19.7699 132.725 20.6985 133.001 21.5461L134.624 26.5409C135.239 28.4362 133.07 30.0122 131.458 28.8409L127.209 25.7539C126.488 25.2301 125.512 25.2301 124.791 25.7539L120.542 28.8409C118.93 30.0122 116.761 28.4362 117.376 26.5409L118.999 21.5461C119.275 20.6985 118.973 19.7699 118.252 19.2461L114.003 16.1591C112.391 14.9878 113.219 12.4377 115.212 12.4377H120.464C121.355 12.4377 122.145 11.8638 122.421 11.0162L124.044 6.02137Z" fill="#FFA928"/>
</svg>
